<svg width="3230.5741285010276" height="1815.8006439980632" xmlns="http://www.w3.org/2000/svg" xmlns:xlink="http://www.w3.org/1999/xlink"
    version="1.1">
    <g transform="scale(11.528706425051388) translate(10, 10)">
        <defs id="SvgjsDefs1002" />
        <g id="main_text" rel="mainfill" name="main_text" xmlns:name="mainText_mainfill" fill="#1c688d" transform="translate(-2.649996757507324, 65.50254859924317)">
            <path d="M14.95 23.700000000000003 q6.15 0 9.65 4.45 l-2.85 2.05 q-2.6 -3.5 -6.9 -3.5 q-3.5 0 -5.675 1.8 t-2.275 4.9 q0 2.7 1.65 4.375 t5.75 2.825 q5.4 1.6 7.2 2.825 t2.725 3.025 t0.925 4.5 q0 4.3 -3.075 7.075 t-7.925 2.875 q-7.65 0 -11.5 -5.35 l3.15 -2.1 q2.65 4.4 8.1 4.45 q3.55 0 5.75 -1.975 t2.2 -4.975 q0 -1.75 -0.625 -2.875 t-1.9 -1.95 t-3.25 -1.5 t-4.625 -1.575 q-4 -1.3 -5.925 -3.65 t-1.925 -6 q0 -4.3 3.225 -7 t8.125 -2.7 z M34.43 36.9 l3 0 l0 23.1 l-3 0 l0 -23.1 z M35.93 25.5 q1 0 1.625 0.65 t0.625 1.6 t-0.625 1.6 t-1.625 0.65 q-0.95 0 -1.6 -0.65 t-0.65 -1.6 t0.65 -1.6 t1.6 -0.65 z M50.06 48.15 q0 3.8 2.675 6.425 t6.475 2.725 q3.75 0 6.4 -2.65 t2.75 -6.5 q0 -3.8 -2.7 -6.45 t-6.5 -2.7 q-3.8 0 -6.45 2.725 t-2.65 6.425 z M59.410000000000004 36.3 q5.9 0.05 8.75 4.5 l0.1 0 l0 -3.9 l3 0 l0 21.5 q0 6.75 -3.25 10.175 t-9.1 3.425 q-3.5 0 -6.55 -1.275 t-4.85 -3.575 l2.35 -2.2 q3.1 4.35 9.1 4.35 q9.3 0 9.3 -10.35 l0 -3.45 l-0.1 0 q-2.8 4.4 -8.75 4.5 q-5 0 -8.6 -3.425 t-3.75 -8.425 q0 -4.9 3.675 -8.35 t8.675 -3.5 z M91.74000000000001 36.3 q4.5 0 6.625 2.425 t2.175 7.625 l0 13.65 l-3 0 l0 -13.5 q0 -3.85 -1.425 -5.675 t-4.375 -1.825 q-3.65 0 -5.8 2.525 t-2.2 7.025 l0 11.45 l-3 0 l0 -16.85 q-0.05 -1.45 -0.25 -6.25 l3 0 q0.1 3.95 0.2 4.05 l0.15 0 q1 -2.1 3.175 -3.375 t4.725 -1.275 z M112.62000000000002 53.6 q0 1.9 1.525 3.1 t3.775 1.2 q4.05 0 6.025 -2.125 t1.975 -5.775 l0 -1.6 l-3.6 0 q-4.6 0 -7.15 1.4 t-2.55 3.8 z M119.42000000000002 36.3 q4.65 0 6.9 2.15 t2.3 6 l0 6.85 q0 5.6 0.45 8.7 l-2.8 0 q-0.3 -1.55 -0.3 -3.75 l-0.1 0 q-2.5 4.35 -8.05 4.35 q-3.75 0 -5.95 -1.85 t-2.25 -5 q0 -3.85 3.325 -5.8 t9.275 -1.95 l3.7 0 l0 -1.35 q0 -2.85 -1.75 -4.25 t-4.75 -1.4 q-4 0 -7.05 2.6 l-1.75 -2.05 q1.65 -1.6 4.075 -2.425 t4.725 -0.825 z M139.25000000000003 22.200000000000003 l3 0 l0 37.8 l-3 0 l0 -37.8 z  M169.86 42.3 q0 6.75 4.15 11.125 t10.85 4.475 q6.75 0 10.85 -4.425 t4.15 -11.175 q0 -6.85 -4.1 -11.175 t-10.95 -4.425 q-6.7 0 -10.8 4.4 t-4.15 11.2 z M184.86 23.700000000000003 q5.4 0 9.55 2.375 t6.425 6.65 t2.325 9.575 q0 8.15 -5.15 13.325 t-13.15 5.275 q-8.05 0 -13.1 -5.225 t-5.2 -13.375 q0.05 -8.15 5.1 -13.3 t13.2 -5.3 z M222.84000000000003 36.3 q4.5 0 6.625 2.425 t2.175 7.625 l0 13.65 l-3 0 l0 -13.5 q0 -3.85 -1.425 -5.675 t-4.375 -1.825 q-3.65 0 -5.8 2.525 t-2.2 7.025 l0 11.45 l-3 0 l0 -16.85 q-0.05 -1.45 -0.25 -6.25 l3 0 q0.1 3.95 0.2 4.05 l0.15 0 q1 -2.1 3.175 -3.375 t4.725 -1.275 z M259.87000000000006 46.5 q0 -3.15 -2.35 -5.325 t-5.7 -2.175 q-3.25 0 -5.6 2.175 t-2.75 5.325 l16.4 0 z M252.02000000000004 36.3 q4.8 0 7.8 3.1 t3.05 8 l0 1.8 l-19.4 0 q0.2 3.9 2.575 6.275 t6.175 2.425 q2.35 0 4.475 -1.125 t3.275 -2.975 l2.2 1.85 q-3.25 4.95 -10 4.95 q-5.3 -0.05 -8.475 -3.45 t-3.225 -8.75 q0 -5.2 3.275 -8.625 t8.275 -3.475 z"
            />
        </g>
        <g id="SvgjsG1009" rel="mainfill" name="symbol" xmlns:name="symbol_mainfill" fill="#1c688d" transform="translate(91.45282293598216, 2.8299882078623355) scale(0.77301208092411)">
            <title xmlns="http://www.w3.org/2000/svg">Artboard 73</title>
            <path xmlns="http://www.w3.org/2000/svg" d="M57,54.31l-6.41,8.21a1.37,1.37,0,0,1-2.17,0L42,54.31a1.33,1.33,0,0,1,.35-1.95,13.59,13.59,0,0,1,14.28,0A1.33,1.33,0,0,1,57,54.31Zm-27.29-18a1.32,1.32,0,0,0-.25,1.88l4.65,6a1.33,1.33,0,0,0,1.83.25,23.81,23.81,0,0,1,27.16,0,1.33,1.33,0,0,0,1.83-.25l4.65-6a1.32,1.32,0,0,0-.25-1.88A34,34,0,0,0,29.73,36.32Zm47.76-8.24,4.64-5.95a1.33,1.33,0,0,0-.24-1.88,54.44,54.44,0,0,0-64.7,0,1.33,1.33,0,0,0-.24,1.88l4.64,5.95a1.32,1.32,0,0,0,1.83.24,44.23,44.23,0,0,1,52.25,0A1.32,1.32,0,0,0,77.49,28.09Zm15.25,6.34a5,5,0,0,0-9.92,1.64l3.08,18.28a5.7,5.7,0,0,1-1.22,4.51l-7.12,8.71a1.65,1.65,0,0,1-2.09.44,1.6,1.6,0,0,1-.44-2.4L81.22,58a5,5,0,0,0-.2-6.66,4.84,4.84,0,0,0-7.17.37L61,67.51A24,24,0,0,0,55.65,85l.5,5.37H79.74l-.5-4.92L94.3,67a12,12,0,0,0,2.53-9.57ZM26.15,51.73A4.84,4.84,0,0,0,19,51.37a5,5,0,0,0-.2,6.66L25,65.61a1.6,1.6,0,0,1-.44,2.4,1.65,1.65,0,0,1-2.09-.44l-7.12-8.71a5.7,5.7,0,0,1-1.22-4.51l3.08-18.28a5,5,0,0,0-9.92-1.64l-4.09,23A12,12,0,0,0,5.7,67L20.76,85.47l-.5,4.92H43.85l.5-5.37A24,24,0,0,0,39,67.51Z"
            />
        </g>
    </g>
</svg>